<?xml version="1.0" encoding="UTF-8"?>
<svg version="1.1" xmlns="http://www.w3.org/2000/svg" width="100" height="100">
<path d="M0 0 C3 2.25 3 2.25 5 5 C5 6.32 5 7.64 5 9 C6.32 8.67 7.64 8.34 9 8 C9 33.08 9 58.16 9 84 C7.02 83.505 7.02 83.505 5 83 C4.9175 83.7425 4.835 84.485 4.75 85.25 C3.80632018 88.71015935 2.955699 89.95374685 0 92 C-6.63277225 92.65973029 -10.3859874 91.27264856 -16 87.875 C-16.76489746 87.43124023 -17.52979492 86.98748047 -18.31787109 86.53027344 C-19.99336406 85.55542905 -21.66425834 84.57264826 -23.33105469 83.58300781 C-26.09880026 81.94139948 -28.87950351 80.32384629 -31.6640625 78.7109375 C-35.68486771 76.37939546 -39.69860775 74.03635712 -43.70703125 71.68359375 C-48.04839422 69.1369613 -52.40080116 66.61065304 -56.76171875 64.09765625 C-57.8585498 63.46375977 -58.95538086 62.82986328 -60.08544922 62.17675781 C-62.19568763 60.95767925 -64.30791663 59.74203828 -66.42236328 58.53027344 C-67.37224121 57.98016602 -68.32211914 57.43005859 -69.30078125 56.86328125 C-70.13778564 56.38157471 -70.97479004 55.89986816 -71.8371582 55.40356445 C-75.38136746 53.10356908 -76.76785617 51.82024153 -77.9375 47.6875 C-77.99884585 44.06809509 -77.68244055 42.53339941 -75.60864258 39.63549805 C-71.90044129 35.86539023 -66.96935747 33.58443915 -62.375 31.0625 C-60.62396186 30.07781795 -58.87293606 29.09311311 -57.12268066 28.10704041 C-55.30316779 27.08411126 -53.48040462 26.0671609 -51.65722656 25.05078125 C-46.93954235 22.41392099 -42.26403791 19.70573733 -37.58789062 16.99609375 C-34.32110808 15.10369192 -31.04760914 13.22332978 -27.7734375 11.34375 C-24.33483169 9.36418309 -20.91988241 7.35788205 -17.5390625 5.28125 C-16.90323242 4.89702881 -16.26740234 4.51280762 -15.61230469 4.11694336 C-14.04366157 3.16486781 -12.48596485 2.19481359 -10.9296875 1.22265625 C-6.95524298 -0.43601193 -4.29563566 -0.37334257 0 0 Z M-15.375 7.625 C-17.07401409 8.64096733 -18.77324314 9.65657525 -20.47265625 10.671875 C-21.37000488 11.21392578 -22.26735352 11.75597656 -23.19189453 12.31445312 C-27.03738814 14.62268542 -30.91574206 16.87251992 -34.79492188 19.12353516 C-39.87071695 22.06963175 -44.93462446 25.03603719 -50 28 C-51.04945801 28.61327148 -52.09891602 29.22654297 -53.18017578 29.85839844 C-56.24715139 31.65215602 -59.31147125 33.45036332 -62.375 35.25 C-63.78422729 36.07346924 -63.78422729 36.07346924 -65.22192383 36.91357422 C-66.08454834 37.42162598 -66.94717285 37.92967773 -67.8359375 38.453125 C-68.59438965 38.89817383 -69.3528418 39.34322266 -70.13427734 39.80175781 C-72.894388 41.57441197 -73.88600734 42.4984323 -74.625 45.75 C-73.78626267 50.11143412 -72.02485894 50.84274733 -68.53173828 53.34082031 C-63.71563507 56.49706307 -58.67515963 59.23988889 -53.625 62 C-45.99509132 66.200118 -38.43811451 70.4684893 -31 75 C-26.92677868 77.47557342 -22.84218377 79.93091518 -18.75 82.375 C-17.70070312 83.01566406 -16.65140625 83.65632813 -15.5703125 84.31640625 C-14.55195312 84.92097656 -13.53359375 85.52554688 -12.484375 86.1484375 C-11.57397461 86.69677246 -10.66357422 87.24510742 -9.72558594 87.81005859 C-6.58232164 89.1823508 -4.39630562 89.30424491 -1 89 C1 88 1 88 2 86 C2.04510131 84.0005086 2.04876598 81.99940538 2 80 C1.08863281 79.48953125 0.17726563 78.9790625 -0.76171875 78.453125 C-8.66971196 74.01779486 -16.56202808 69.5553353 -24.4375 65.0625 C-25.75814453 64.30936523 -25.75814453 64.30936523 -27.10546875 63.54101562 C-31.43847143 61.0627417 -35.75606918 58.56243934 -40.046875 56.01171875 C-40.8313501 55.54564209 -41.6158252 55.07956543 -42.42407227 54.59936523 C-43.90098628 53.71888807 -45.3755546 52.83446075 -46.84741211 51.94555664 C-50.18966449 49.75173218 -50.18966449 49.75173218 -54 49 C-54 47.02 -54 45.04 -54 43 C-53.03513672 42.65195313 -53.03513672 42.65195313 -52.05078125 42.296875 C-47.94002673 40.54940957 -44.092443 38.41300388 -40.1875 36.25 C-38.89743042 35.53831665 -38.89743042 35.53831665 -37.58129883 34.81225586 C-27.46029096 29.19529055 -17.48491154 23.32860261 -7.50537109 17.46533203 C-4.35006598 15.61986903 -1.178893 13.80447622 2 12 C1.67039784 6.98464948 1.67039784 6.98464948 -1 3 C-6.88278925 2.06370021 -10.56394691 4.65864938 -15.375 7.625 Z " fill="#FFFFFF" transform="translate(80,4)"/>
<path d="M0 0 C3.69230769 0.69230769 3.69230769 0.69230769 5 2 C5.10030046 4.42330105 5.13618425 6.81811509 5.12939453 9.24194336 C5.13114685 9.9996553 5.13289917 10.75736725 5.13470459 11.53804016 C5.13912385 14.05533098 5.13618458 16.57255215 5.1328125 19.08984375 C5.13348559 20.83240269 5.13445566 22.57496153 5.13571167 24.31752014 C5.1371888 27.97527965 5.13503387 31.6330148 5.13037109 35.29077148 C5.12467801 39.98644676 5.12795005 44.68206483 5.13394356 49.377738 C5.13755236 52.97815891 5.13640904 56.57856619 5.13381577 60.1789875 C5.13314716 61.91059946 5.1339726 63.64221264 5.13629532 65.37382317 C5.13882659 67.79213625 5.13497431 70.210356 5.12939453 72.62866211 C5.13141876 73.34925812 5.13344299 74.06985413 5.13552856 74.81228638 C5.11426357 79.77147286 5.11426357 79.77147286 4 82 C2.35 81.67 0.7 81.34 -1 81 C-1.02312359 70.58657075 -1.04091517 60.17314756 -1.05181217 49.75969791 C-1.05704097 44.92483173 -1.06413854 40.08998306 -1.07543945 35.25512695 C-1.08626847 30.5932288 -1.09227686 25.93134754 -1.09487724 21.26943779 C-1.09673147 19.48675712 -1.10035203 17.70407741 -1.10573006 15.92140388 C-1.11294069 13.4333404 -1.11399093 10.94534757 -1.11352539 8.45727539 C-1.11712067 7.71281158 -1.12071594 6.96834778 -1.12442017 6.20132446 C-1.11405216 1.11405216 -1.11405216 1.11405216 0 0 Z " fill="#FFFFFF" transform="translate(93,9)"/>
</svg>
