<!DOCTYPE svg PUBLIC "-//W3C//DTD SVG 1.1//EN" "http://www.w3.org/Graphics/SVG/1.1/DTD/svg11.dtd">
<!-- Uploaded to: SVG Repo, www.svgrepo.com, Transformed by: SVG Repo Mixer Tools -->
<svg fill="#ff6600" width="800px" height="800px" viewBox="0 0 24 24" role="img" xmlns="http://www.w3.org/2000/svg" stroke="#ff6600">
<g id="SVGRepo_bgCarrier" stroke-width="0"/>
<g id="SVGRepo_tracerCarrier" stroke-linecap="round" stroke-linejoin="round"/>
<g id="SVGRepo_iconCarrier">
<path d="M4.15 7.782a1.59 1.59 0 1 1 3.181 0 1.59 1.59 0 0 1-3.181 0zm5.741 1.591a1.59 1.59 0 1 0 0-3.181 1.59 1.59 0 0 0 0 3.181zm4.218 0a1.59 1.59 0 1 0 0-3.181 1.59 1.59 0 0 0 0 3.181zm4.15 0a1.59 1.59 0 1 0 0-3.181 1.59 1.59 0 0 0 0 3.181zM5.741 10.409a1.59 1.59 0 1 0 0 3.181 1.59 1.59 0 0 0 0-3.181zm8.368 0a1.59 1.59 0 1 0 0 3.181 1.59 1.59 0 0 0 0-3.181zm4.15 0a1.59 1.59 0 1 0 0 3.181 1.59 1.59 0 0 0 0-3.181zm4.15 3.182a1.59 1.59 0 1 0 0-3.181 1.59 1.59 0 0 0 0 3.181zM1.591 10.409a1.591 1.591 0 1 0 0 3.182 1.591 1.591 0 0 0 0-3.182zm4.15 4.218a1.59 1.59 0 1 0 0 3.181 1.59 1.59 0 0 0 0-3.181zm12.518 0a1.59 1.59 0 1 0 0 3.181 1.59 1.59 0 0 0 0-3.181zm4.15 0a1.59 1.59 0 1 0 0 3.181 1.59 1.59 0 0 0 0-3.181zm-20.818 0a1.59 1.59 0 1 0 0 3.181 1.59 1.59 0 0 0 0-3.181m8.3-4.218a1.591 1.591 0 1 0 0 3.182 1.591 1.591 0 0 0 0-3.182z"/>
</g>
</svg>